<?xml version="1.0" encoding="UTF-8"?>
<svg id="Layer_1" data-name="Layer 1" xmlns="http://www.w3.org/2000/svg" viewBox="0 0 126.33 84.41">
  <defs>
    <style>
      .cls-1 {
        fill: #eaecef;
        stroke-width: 0px;
      }
    </style>
  </defs>
  <path class="cls-1" d="m99.18,23.29l-.94,38.69c-.14.53-.56.89-1.04.89h-6.98c-.69,0-1.19-.77-.99-1.53l.77-38.05h9.18Z"/>
  <path class="cls-1" d="m14.21,41.51c-.28.14-.28.54,0,.68,4.14,2.17,26.38,13.92,26.38,13.92l5.93,3.13c.28.15.46.44.46.76v12.43c0,.65-.69,1.06-1.26.76l-26.15-13.81-1.85-.98s-.04-.02-.06-.03c-3.26-1.97-5.9-4.89-7.52-8.37-1.16-2.48-1.8-5.24-1.8-8.15s.64-5.67,1.8-8.14c1.62-3.48,4.25-6.39,7.52-8.37.02-.01.04-.02.06-.03l1.87-.99,26.13-13.81c.57-.3,1.26.11,1.26.76v12.43c0,.32-.18.61-.46.76l-5.93,3.13s-22.24,11.75-26.38,13.91Z"/>
  <path class="cls-1" d="m112.4,41.66c.28.14.28.54,0,.68-4.14,2.17-26.38,13.92-26.38,13.92l-5.93,3.13c-.28.15-.46.44-.46.76v12.43c0,.65.69,1.06,1.26.76l26.15-13.81,1.85-.98s.04-.02.06-.03c3.26-1.97,5.9-4.89,7.52-8.37,1.16-2.48,1.8-5.24,1.8-8.15s-.64-5.67-1.8-8.14c-1.62-3.48-4.25-6.39-7.52-8.37-.02-.01-.04-.02-.06-.03l-1.87-.99-26.13-13.81c-.57-.3-1.26.11-1.26.76v12.43c0,.32.18.61.46.76l5.93,3.13s22.24,11.75,26.38,13.91Z"/>
  <path class="cls-1" d="m74.63,10.37h-10.55c-.55,0-1.04.36-1.2.89l-12.22,60.94c-.23.76.34,1.53,1.14,1.53h10.55c.55,0,1.04-.36,1.2-.89l12.22-60.94c.23-.76-.34-1.53-1.14-1.53Z"/>
</svg>