<?xml version="1.0" encoding="UTF-8"?>
<svg id="Layer_1" data-name="Layer 1" xmlns="http://www.w3.org/2000/svg" viewBox="0 0 219.99 126.81">
  <defs>
    <style>
      .cls-1 {
        stroke-width: 0px;
      }
    </style>
  </defs>
  <path class="cls-1" d="m181.8,25.84l-1.88,77.43c-.27,1.06-1.11,1.79-2.08,1.79h-13.98c-1.38,0-2.38-1.54-1.98-3.07l1.54-76.15s18.38,0,18.38,0Z"/>
  <path class="cls-1" d="m11.75,62.3c-.55.29-.55,1.07,0,1.36,8.28,4.33,52.79,27.85,52.79,27.85l11.86,6.27c.56.3.92.88.92,1.52v24.87c0,1.3-1.38,2.13-2.53,1.52l-52.33-27.64-3.71-1.96s-.07-.04-.11-.06c-6.53-3.95-11.8-9.78-15.04-16.74-2.31-4.95-3.6-10.48-3.6-16.3s1.29-11.35,3.6-16.29c3.25-6.96,8.51-12.79,15.04-16.74.04-.02.07-.04.11-.06l3.74-1.98L74.79.29c1.15-.61,2.53.23,2.53,1.52v24.87c0,.64-.35,1.22-.92,1.52l-11.86,6.27S20.03,57.98,11.75,62.31h0Z"/>
  <path class="cls-1" d="m208.24,62.62c.55.29.55,1.07,0,1.36-8.28,4.33-52.79,27.85-52.79,27.85l-11.86,6.27c-.56.3-.92.88-.92,1.52v24.87c0,1.3,1.38,2.13,2.53,1.52l52.33-27.64,3.71-1.96s.07-.04.11-.06c6.53-3.95,11.8-9.78,15.04-16.74,2.31-4.95,3.6-10.48,3.6-16.3s-1.29-11.35-3.6-16.29c-3.25-6.96-8.51-12.79-15.04-16.74-.04-.02-.07-.04-.11-.06l-3.74-1.98L145.2.61c-1.15-.61-2.53.23-2.53,1.52v24.87c0,.64.35,1.22.92,1.52l11.86,6.27s44.51,23.51,52.79,27.84h0Z"/>
  <path class="cls-1" d="m132.66,0h-21.11c-1.11,0-2.08.73-2.4,1.79l-24.45,121.95c-.46,1.53.69,3.07,2.29,3.07h21.11c1.11,0,2.08-.73,2.4-1.79L134.95,3.07c.46-1.53-.69-3.07-2.29-3.07h0Z"/>
</svg>