<?xml version="1.0" encoding="UTF-8"?>
<svg id="Layer_1" data-name="Layer 1" xmlns="http://www.w3.org/2000/svg" viewBox="0 0 4958.65 703.28">
  <defs>
    <style>
      .cls-1 {
        fill: #eaecef;
        stroke-width: 0px;
      }
    </style>
  </defs>
  <g>
    <path class="cls-1" d="m1364.68,506.75l169.23-443.33h115.2l-228.81,550.58h-115.2L1075.49,63.43h119.17l170.02,443.33Z"/>
    <path class="cls-1" d="m1696.77,149.23V54.69h110.44v94.54h-110.44Zm2.38,464.78V223.92h104.87v390.1h-104.87Z"/>
    <path class="cls-1" d="m2939.18,437.63c-4.25,56.68-26.62,101.43-67.13,134.27-40.52,32.85-100.78,49.26-180.75,49.26-51.38,0-94.29-7.81-128.71-23.44-34.44-15.62-62.1-36.41-83.02-62.37-20.93-25.94-35.75-56.01-44.49-90.17-8.74-34.16-13.11-70.04-13.11-107.65s3.97-71.77,11.91-105.67c7.95-33.89,21.97-63.96,42.11-90.17,20.12-26.22,47.66-47.14,82.62-62.77,34.96-15.62,79.18-23.44,132.68-23.44,38.14,0,72.03,4.11,101.7,12.31,29.66,8.22,54.82,20,75.48,35.35,20.66,15.37,36.8,33.91,48.46,55.62,11.64,21.72,19.06,45.82,22.25,72.3h-115.2c-2.66-11.65-7.29-22.91-13.91-33.77-6.63-10.85-15.23-20.38-25.82-28.6-10.6-8.21-23.04-14.7-37.35-19.47-14.3-4.77-30.46-7.15-48.46-7.15h-12.71c-30.19,0-55.1,5.44-74.68,16.28-19.6,10.86-35.23,25.43-46.88,43.7-11.66,18.27-19.74,39.07-24.23,62.37-4.5,23.31-6.75,47.67-6.75,73.1,0,23.83,2.11,47.54,6.36,71.1,4.23,23.57,11.92,44.63,23.04,63.16,11.12,18.54,26.62,33.64,46.48,45.29,19.86,11.66,45.41,17.48,76.67,17.48h11.12c19.59,0,36.94-2.78,52.04-8.34,15.1-5.56,27.81-12.97,38.13-22.25,10.33-9.26,18.53-19.59,24.63-30.99,6.09-11.38,10.19-23.16,12.32-35.35h115.2Z"/>
    <path class="cls-1" d="m3229.96,216.76c38.13,0,71.23,4.91,99.31,14.7,28.07,9.81,51.1,23.57,69.12,41.32,18,17.75,31.38,38.93,40.12,63.56,8.74,24.63,13.11,52.04,13.11,82.23,0,65.15-18.41,115.34-55.22,150.56-36.82,35.23-92.3,52.83-166.45,52.83s-129.11-17.6-166.45-52.83c-37.34-35.22-56.01-85.41-56.01-150.56,0-30.19,4.37-57.6,13.11-82.23,8.74-24.63,22.24-45.81,40.52-63.56,18.27-17.74,41.44-31.51,69.52-41.32,28.07-9.79,61.17-14.7,99.31-14.7Zm0,73.09c-20.66,0-38.28,3.58-52.84,10.73-14.57,7.15-26.49,16.82-35.75,29-9.28,12.19-16.03,26.1-20.26,41.71-4.25,15.63-6.35,31.66-6.35,48.07s2.11,32.31,6.35,47.67c4.23,15.37,10.98,28.88,20.26,40.52,9.26,11.66,21.18,21.06,35.75,28.2,14.56,7.15,32.18,10.73,52.84,10.73s38.26-3.58,52.83-10.73c14.56-7.15,26.48-16.55,35.75-28.2,9.26-11.64,16.01-25.15,20.26-40.52,4.23-15.36,6.35-31.25,6.35-47.67s-2.12-32.44-6.35-48.07c-4.25-15.62-11-29.52-20.26-41.71-9.28-12.18-21.19-21.85-35.75-29-14.57-7.15-32.18-10.73-52.83-10.73Z"/>
    <path class="cls-1" d="m3844.89,569.52c-7.94,10.07-18.01,18.81-30.19,26.22-10.6,6.89-23.84,12.98-39.72,18.27-15.89,5.29-34.96,7.94-57.2,7.94-65.68,0-117.06-17.6-154.13-52.83-37.08-35.22-55.61-85.41-55.61-150.56,0-30.19,4.37-57.6,13.11-82.23,8.74-24.63,22.25-45.94,40.52-63.96,18.28-18,41.32-31.9,69.12-41.71,27.81-9.8,61.04-14.7,99.71-14.7,8.47,0,17.74,1.06,27.81,3.18,10.06,2.12,20.13,5.04,30.19,8.74,10.05,3.72,19.59,8.34,28.6,13.91,9,5.56,16.69,11.79,23.04,18.67V63.43h103.29v550.58h-98.52v-44.49Zm-114.41-279.66c-20.66,0-38.27,3.58-52.83,10.73-14.57,7.15-26.62,16.82-36.15,29-9.53,12.19-16.42,26.1-20.66,41.71-4.25,15.63-6.36,31.66-6.36,48.07s2.11,32.31,6.36,47.67c4.23,15.37,11.12,28.88,20.66,40.52,9.53,11.66,21.58,21.06,36.15,28.2,14.56,7.15,32.18,10.73,52.83,10.73,19.07,0,35.62-3.58,49.66-10.73,14.03-7.15,25.55-16.28,34.56-27.41,9-11.12,15.75-23.56,20.26-37.34,4.5-13.77,6.75-27.53,6.75-41.31v-16.69c-.53-15.89-3.18-31.25-7.94-46.08-4.77-14.82-11.66-27.93-20.66-39.32-9.01-11.38-20.39-20.52-34.16-27.41-13.78-6.88-29.93-10.33-48.47-10.33Z"/>
    <path class="cls-1" d="m4453.47,484.51c-6.36,25.42-15.89,46.88-28.6,64.35-12.71,17.48-28.2,31.66-46.48,42.5-18.27,10.86-38.93,18.67-61.97,23.44-23.04,4.77-47.54,7.15-73.49,7.15-39.2,0-72.97-5.16-101.3-15.49-28.34-10.33-51.64-24.49-69.91-42.5-18.28-18-31.78-39.33-40.52-63.96-8.74-24.63-13.11-51.5-13.11-80.64,0-34.43,5.43-64.35,16.29-89.78,10.85-25.42,25.94-46.47,45.29-63.16,19.33-16.69,42.77-29.12,70.31-37.34,27.53-8.21,58-12.31,91.37-12.31s60.78,4.25,87,12.71c26.22,8.48,48.59,21.06,67.13,37.74,18.53,16.69,32.84,37.62,42.9,62.77,10.06,25.16,15.1,54.42,15.1,87.79v27.81h-327.33c1.59,13.78,4.77,26.75,9.53,38.93,4.76,12.19,11.78,22.91,21.05,32.18,9.26,9.27,20.92,16.56,34.96,21.85,14.03,5.3,31.11,7.94,51.25,7.94,54.54,0,88.19-20.66,100.9-61.97h109.64Zm-110.44-111.23c-1.07-11.12-4.25-21.71-9.53-31.78-5.3-10.06-12.31-18.93-21.05-26.61-8.74-7.67-19.07-13.77-30.99-18.28-11.92-4.49-25.3-6.75-40.12-6.75-17.48,0-32.97,2.38-46.48,7.15-13.5,4.77-25.03,11-34.56,18.67-9.53,7.69-16.96,16.56-22.25,26.62-5.3,10.06-8.74,20.39-10.33,30.98h215.31Z"/>
    <path class="cls-1" d="m4616.33,504.37c2.11,13.78,11.25,24.23,27.41,31.38,16.15,7.15,34.82,10.73,56.01,10.73,9,0,18-.66,27.01-1.99,9-1.31,17.2-3.84,24.63-7.55,7.41-3.7,13.51-8.6,18.28-14.7,4.77-6.08,7.15-13.63,7.15-22.64,0-7.41-2.38-13.63-7.15-18.67-4.77-5.03-11.4-9.13-19.86-12.31-8.48-3.18-18.15-5.82-29-7.94-10.86-2.11-22.64-3.97-35.35-5.56-20.13-3.18-40.12-6.62-59.98-10.33-19.86-3.7-37.88-9.53-54.03-17.48-16.16-7.94-29.27-19.07-39.33-33.37-10.07-14.3-15.1-33.37-15.1-57.2,0-21.18,4.77-39.33,14.3-54.42,9.53-15.1,22.25-27.53,38.13-37.34,15.89-9.79,34.42-16.94,55.62-21.45,21.18-4.5,43.69-6.75,67.53-6.75s46.88,2.52,67.53,7.55c20.66,5.04,38.53,12.31,53.63,21.85,15.1,9.53,27.01,21.33,35.75,35.35,8.74,14.04,13.11,30.33,13.11,48.86h-98.51c-1.07-5.82-3.85-11.25-8.34-16.29-4.5-5.03-10.06-9.26-16.68-12.71-6.63-3.44-14.04-6.22-22.25-8.34-8.22-2.11-16.56-3.18-25.03-3.18-18.54,0-35.09,3.45-49.66,10.33-14.57,6.89-21.85,16.42-21.85,28.6,0,8.48,2.64,15.49,7.94,21.06,5.29,5.56,12.57,10.2,21.85,13.9,9.26,3.71,19.86,6.63,31.78,8.74,11.92,2.12,24.23,3.97,36.94,5.56,19.59,2.66,39.06,5.96,58.4,9.93,19.33,3.97,36.67,10.2,52.04,18.67,15.35,8.48,27.81,20.14,37.34,34.96,9.53,14.83,14.3,34.44,14.3,58.79,0,22.78-5.44,41.98-16.29,57.6-10.86,15.63-25.03,28.21-42.5,37.74-17.48,9.53-36.94,16.28-58.4,20.26-21.45,3.97-42.78,5.96-63.95,5.96-25.96,0-50.45-2.26-73.49-6.75-23.04-4.49-43.3-11.52-60.78-21.05-17.48-9.53-31.38-21.71-41.71-36.55-10.33-14.82-15.77-32.57-16.29-53.23h108.85Z"/>
    <path class="cls-1" d="m2223.31,569.52c-7.94,10.07-18.01,18.81-30.19,26.22-10.6,6.89-23.84,12.98-39.72,18.27-15.89,5.29-34.96,7.94-57.2,7.94-65.68,0-117.06-17.6-154.13-52.83-37.08-35.22-55.61-85.41-55.61-150.56,0-30.19,4.37-57.6,13.11-82.23,8.74-24.63,22.25-45.94,40.52-63.96,18.28-18,41.32-31.9,69.12-41.71,27.81-9.8,61.04-14.7,99.71-14.7,8.47,0,17.74,1.06,27.81,3.18,10.06,2.12,20.13,5.04,30.19,8.74,10.05,3.72,19.59,8.34,28.6,13.91,9,5.56,16.69,11.79,23.04,18.67v-51.31h103.29v404.86h-98.52v-44.49Zm-114.41-279.66c-20.66,0-38.27,3.58-52.83,10.73-14.57,7.15-26.62,16.82-36.15,29-9.53,12.19-16.42,26.1-20.66,41.71-4.25,15.63-6.36,31.66-6.36,48.07s2.11,32.31,6.36,47.67c4.23,15.37,11.12,28.88,20.66,40.52,9.53,11.66,21.58,21.06,36.15,28.2,14.56,7.15,32.18,10.73,52.83,10.73,19.07,0,35.62-3.58,49.66-10.73,14.03-7.15,25.55-16.28,34.56-27.41,9-11.12,15.75-23.56,20.26-37.34,4.5-13.77,6.75-27.53,6.75-41.31v-16.69c-.53-15.89-3.18-31.25-7.94-46.08-4.77-14.82-11.66-27.93-20.66-39.32-9.01-11.38-20.39-20.52-34.16-27.41-13.78-6.88-29.93-10.33-48.47-10.33Z"/>
  </g>
  <g>
    <path class="cls-1" d="m825.39,184.05l-8.31,341.77c-1.21,4.7-4.92,7.9-9.16,7.9h-61.69c-6.1,0-10.49-6.78-8.72-13.55l6.78-336.12h81.11Z"/>
    <path class="cls-1" d="m74.85,344.98c-2.44,1.27-2.44,4.74,0,6.01,36.54,19.13,233.01,122.92,233.01,122.92l52.34,27.66c2.49,1.32,4.05,3.9,4.05,6.72v109.76c0,5.72-6.09,9.39-11.15,6.72l-230.97-122.02-16.37-8.65c-.17-.09-.33-.18-.49-.28-28.83-17.43-52.07-43.15-66.4-73.89-10.22-21.86-15.9-46.25-15.9-71.96s5.69-50.09,15.9-71.92c14.33-30.73,37.57-56.45,66.4-73.89.16-.1.33-.19.49-.28l16.5-8.72,230.84-121.95c5.06-2.67,11.15,1,11.15,6.72v109.76c0,2.82-1.56,5.4-4.05,6.72l-52.34,27.66s-196.47,103.79-233.01,122.9Z"/>
    <path class="cls-1" d="m942.12,346.38c2.44,1.27,2.44,4.74,0,6.01-36.54,19.13-233.01,122.92-233.01,122.92l-52.34,27.66c-2.49,1.32-4.05,3.9-4.05,6.72v109.76c0,5.72,6.09,9.39,11.15,6.72l230.97-122.02,16.37-8.65c.17-.09.33-.18.49-.28,28.83-17.43,52.07-43.15,66.4-73.89,10.22-21.86,15.9-46.25,15.9-71.96s-5.69-50.09-15.9-71.92c-14.33-30.73-37.57-56.45-66.4-73.89-.16-.1-.33-.19-.49-.28l-16.5-8.72-230.84-121.95c-5.06-2.67-11.15,1-11.15,6.72v109.76c0,2.82,1.56,5.4,4.05,6.72l52.34,27.66s196.47,103.79,233.01,122.9Z"/>
    <path class="cls-1" d="m608.52,69.98h-93.19c-4.89,0-9.19,3.21-10.59,7.89l-107.94,538.28c-2.02,6.75,3.04,13.54,10.09,13.54h93.18c4.89,0,9.19-3.21,10.59-7.89l107.94-538.28c2.02-6.75-3.04-13.54-10.09-13.54Z"/>
  </g>
</svg>