<?xml version="1.0" encoding="UTF-8"?>
<svg id="Layer_1" data-name="Layer 1" xmlns="http://www.w3.org/2000/svg" viewBox="0 0 1100.61 130.28">
  <defs>
    <style>
      .cls-1 {
        stroke-width: 0px;
      }
    </style>
  </defs>
  <g>
    <path class="cls-1" d="m303.98,102.42L342.32,1.98h26.1l-51.84,124.74h-26.1L238.46,1.98h27l38.52,100.44h0Z"/>
    <path class="cls-1" d="m379.22,21.42V0h25.02v21.42h-25.02Zm.54,105.3V38.34h23.76v88.38h-23.76Z"/>
    <path class="cls-1" d="m660.7,86.76c-.96,12.84-6.03,22.98-15.21,30.42s-22.83,11.16-40.95,11.16c-11.64,0-21.36-1.77-29.16-5.31s-14.07-8.25-18.81-14.13-8.1-12.69-10.08-20.43-2.97-15.87-2.97-24.39.9-16.26,2.7-23.94,4.98-14.49,9.54-20.43c4.56-5.94,10.8-10.68,18.72-14.22,7.92-3.54,17.94-5.31,30.06-5.31,8.64,0,16.32.93,23.04,2.79s12.42,4.53,17.1,8.01,8.34,7.68,10.98,12.6c2.64,4.92,4.32,10.38,5.04,16.38h-26.1c-.6-2.64-1.65-5.19-3.15-7.65s-3.45-4.62-5.85-6.48c-2.4-1.86-5.22-3.33-8.46-4.41s-6.9-1.62-10.98-1.62h-2.88c-6.84,0-12.48,1.23-16.92,3.69s-7.98,5.76-10.62,9.9-4.47,8.85-5.49,14.13-1.53,10.8-1.53,16.56c0,5.4.48,10.77,1.44,16.11s2.7,10.11,5.22,14.31c2.52,4.2,6.03,7.62,10.53,10.26s10.29,3.96,17.37,3.96h2.52c4.44,0,8.37-.63,11.79-1.89s6.3-2.94,8.64-5.04c2.34-2.1,4.2-4.44,5.58-7.02s2.31-5.25,2.79-8.01h26.1Z"/>
    <path class="cls-1" d="m726.58,36.72c8.64,0,16.14,1.11,22.5,3.33s11.58,5.34,15.66,9.36c4.08,4.02,7.11,8.82,9.09,14.4,1.98,5.58,2.97,11.79,2.97,18.63,0,14.76-4.17,26.13-12.51,34.11s-20.91,11.97-37.71,11.97-29.25-3.99-37.71-11.97-12.69-19.35-12.69-34.11c0-6.84.99-13.05,2.97-18.63,1.98-5.58,5.04-10.38,9.18-14.4,4.14-4.02,9.39-7.14,15.75-9.36s13.86-3.33,22.5-3.33h0Zm0,16.56c-4.68,0-8.67.81-11.97,2.43-3.3,1.62-6,3.81-8.1,6.57s-3.63,5.91-4.59,9.45c-.96,3.54-1.44,7.17-1.44,10.89s.48,7.32,1.44,10.8,2.49,6.54,4.59,9.18c2.1,2.64,4.8,4.77,8.1,6.39s7.29,2.43,11.97,2.43,8.67-.81,11.97-2.43,6-3.75,8.1-6.39,3.63-5.7,4.59-9.18,1.44-7.08,1.44-10.8-.48-7.35-1.44-10.89-2.49-6.69-4.59-9.45c-2.1-2.76-4.8-4.95-8.1-6.57-3.3-1.62-7.29-2.43-11.97-2.43h0Z"/>
    <path class="cls-1" d="m865.89,116.64c-1.8,2.28-4.08,4.26-6.84,5.94-2.4,1.56-5.4,2.94-9,4.14s-7.92,1.8-12.96,1.8c-14.88,0-26.52-3.99-34.92-11.97-8.4-7.98-12.6-19.35-12.6-34.11,0-6.84.99-13.05,2.97-18.63,1.98-5.58,5.04-10.41,9.18-14.49,4.14-4.08,9.36-7.23,15.66-9.45,6.3-2.22,13.83-3.33,22.59-3.33,1.92,0,4.02.24,6.3.72,2.28.48,4.56,1.14,6.84,1.98,2.28.84,4.44,1.89,6.48,3.15s3.78,2.67,5.22,4.23V1.98h23.4v124.74h-22.32v-10.08h0Zm-25.92-63.36c-4.68,0-8.67.81-11.97,2.43-3.3,1.62-6.03,3.81-8.19,6.57s-3.72,5.91-4.68,9.45c-.96,3.54-1.44,7.17-1.44,10.89s.48,7.32,1.44,10.8,2.52,6.54,4.68,9.18c2.16,2.64,4.89,4.77,8.19,6.39s7.29,2.43,11.97,2.43c4.32,0,8.07-.81,11.25-2.43s5.79-3.69,7.83-6.21c2.04-2.52,3.57-5.34,4.59-8.46,1.02-3.12,1.53-6.24,1.53-9.36v-3.78c-.12-3.6-.72-7.08-1.8-10.44s-2.64-6.33-4.68-8.91-4.62-4.65-7.74-6.21c-3.12-1.56-6.78-2.34-10.98-2.34h0Z"/>
    <path class="cls-1" d="m1003.77,97.38c-1.44,5.76-3.6,10.62-6.48,14.58s-6.39,7.17-10.53,9.63-8.82,4.23-14.04,5.31c-5.22,1.08-10.77,1.62-16.65,1.62-8.88,0-16.53-1.17-22.95-3.51s-11.7-5.55-15.84-9.63-7.2-8.91-9.18-14.49-2.97-11.67-2.97-18.27c0-7.8,1.23-14.58,3.69-20.34,2.46-5.76,5.88-10.53,10.26-14.31s9.69-6.6,15.93-8.46,13.14-2.79,20.7-2.79,13.77.96,19.71,2.88,11.01,4.77,15.21,8.55c4.2,3.78,7.44,8.52,9.72,14.22,2.28,5.7,3.42,12.33,3.42,19.89v6.3h-74.16c.36,3.12,1.08,6.06,2.16,8.82,1.08,2.76,2.67,5.19,4.77,7.29,2.1,2.1,4.74,3.75,7.92,4.95s7.05,1.8,11.61,1.8c12.36,0,19.98-4.68,22.86-14.04h24.84Zm-25.02-25.2c-.24-2.52-.96-4.92-2.16-7.2-1.2-2.28-2.79-4.29-4.77-6.03s-4.32-3.12-7.02-4.14c-2.7-1.02-5.73-1.53-9.09-1.53-3.96,0-7.47.54-10.53,1.62-3.06,1.08-5.67,2.49-7.83,4.23-2.16,1.74-3.84,3.75-5.04,6.03-1.2,2.28-1.98,4.62-2.34,7.02h48.78Z"/>
    <path class="cls-1" d="m1040.67,101.88c.48,3.12,2.55,5.49,6.21,7.11,3.66,1.62,7.89,2.43,12.69,2.43,2.04,0,4.08-.15,6.12-.45s3.9-.87,5.58-1.71c1.68-.84,3.06-1.95,4.14-3.33s1.62-3.09,1.62-5.13c0-1.68-.54-3.09-1.62-4.23s-2.58-2.07-4.5-2.79c-1.92-.72-4.11-1.32-6.57-1.8s-5.13-.9-8.01-1.26c-4.56-.72-9.09-1.5-13.59-2.34s-8.58-2.16-12.24-3.96-6.63-4.32-8.91-7.56-3.42-7.56-3.42-12.96c0-4.8,1.08-8.91,3.24-12.33s5.04-6.24,8.64-8.46,7.8-3.84,12.6-4.86c4.8-1.02,9.9-1.53,15.3-1.53s10.62.57,15.3,1.71,8.73,2.79,12.15,4.95,6.12,4.83,8.1,8.01,2.97,6.87,2.97,11.07h-22.32c-.24-1.32-.87-2.55-1.89-3.69s-2.28-2.1-3.78-2.88-3.18-1.41-5.04-1.89c-1.86-.48-3.75-.72-5.67-.72-4.2,0-7.95.78-11.25,2.34-3.3,1.56-4.95,3.72-4.95,6.48,0,1.92.6,3.51,1.8,4.77,1.2,1.26,2.85,2.31,4.95,3.15,2.1.84,4.5,1.5,7.2,1.98s5.49.9,8.37,1.26c4.44.6,8.85,1.35,13.23,2.25s8.31,2.31,11.79,4.23c3.48,1.92,6.3,4.56,8.46,7.92,2.16,3.36,3.24,7.8,3.24,13.32,0,5.16-1.23,9.51-3.69,13.05-2.46,3.54-5.67,6.39-9.63,8.55s-8.37,3.69-13.23,4.59-9.69,1.35-14.49,1.35c-5.88,0-11.43-.51-16.65-1.53s-9.81-2.61-13.77-4.77-7.11-4.92-9.45-8.28-3.57-7.38-3.69-12.06h24.66Z"/>
    <path class="cls-1" d="m498.51,116.64c-1.8,2.28-4.08,4.26-6.84,5.94-2.4,1.56-5.4,2.94-9,4.14s-7.92,1.8-12.96,1.8c-14.88,0-26.52-3.99-34.92-11.97s-12.6-19.35-12.6-34.11c0-6.84.99-13.05,2.97-18.63,1.98-5.58,5.04-10.41,9.18-14.49,4.14-4.08,9.36-7.23,15.66-9.45,6.3-2.22,13.83-3.33,22.59-3.33,1.92,0,4.02.24,6.3.72,2.28.48,4.56,1.14,6.84,1.98,2.28.84,4.44,1.89,6.48,3.15s3.78,2.67,5.22,4.23v-11.62h23.4v91.72h-22.32v-10.08h0Zm-25.92-63.36c-4.68,0-8.67.81-11.97,2.43-3.3,1.62-6.03,3.81-8.19,6.57-2.16,2.76-3.72,5.91-4.68,9.45-.96,3.54-1.44,7.17-1.44,10.89s.48,7.32,1.44,10.8,2.52,6.54,4.68,9.18c2.16,2.64,4.89,4.77,8.19,6.39s7.29,2.43,11.97,2.43c4.32,0,8.07-.81,11.25-2.43s5.79-3.69,7.83-6.21c2.04-2.52,3.57-5.34,4.59-8.46,1.02-3.12,1.53-6.24,1.53-9.36v-3.78c-.12-3.6-.72-7.08-1.8-10.44s-2.64-6.33-4.68-8.91-4.62-4.65-7.74-6.21c-3.12-1.56-6.78-2.34-10.98-2.34h0Z"/>
  </g>
  <g>
    <path class="cls-1" d="m181.8,29.31l-1.88,77.43c-.27,1.06-1.11,1.79-2.08,1.79h-13.98c-1.38,0-2.38-1.54-1.98-3.07l1.54-76.15h18.38Z"/>
    <path class="cls-1" d="m11.75,65.77c-.55.29-.55,1.07,0,1.36,8.28,4.33,52.79,27.85,52.79,27.85l11.86,6.27c.56.3.92.88.92,1.52v24.87c0,1.3-1.38,2.13-2.53,1.52l-52.33-27.64-3.71-1.96s-.07-.04-.11-.06c-6.53-3.95-11.8-9.78-15.04-16.74-2.31-4.95-3.6-10.48-3.6-16.3s1.29-11.35,3.6-16.29c3.25-6.96,8.51-12.79,15.04-16.74.04-.02.07-.04.11-.06l3.74-1.98L74.79,3.76c1.15-.61,2.53.23,2.53,1.52v24.87c0,.64-.35,1.22-.92,1.52l-11.86,6.27s-44.51,23.51-52.79,27.84h0Z"/>
    <path class="cls-1" d="m208.24,66.09c.55.29.55,1.07,0,1.36-8.28,4.33-52.79,27.85-52.79,27.85l-11.86,6.27c-.56.3-.92.88-.92,1.52v24.87c0,1.3,1.38,2.13,2.53,1.52l52.33-27.64,3.71-1.96s.07-.04.11-.06c6.53-3.95,11.8-9.78,15.04-16.74,2.31-4.95,3.6-10.48,3.6-16.3s-1.29-11.35-3.6-16.29c-3.25-6.96-8.51-12.79-15.04-16.74-.04-.02-.07-.04-.11-.06l-3.74-1.98-52.3-27.63c-1.15-.61-2.53.23-2.53,1.52v24.87c0,.64.35,1.22.92,1.52l11.86,6.27s44.51,23.51,52.79,27.84h0Z"/>
    <path class="cls-1" d="m132.66,3.47h-21.11c-1.11,0-2.08.73-2.4,1.79l-24.45,121.95c-.46,1.53.69,3.07,2.29,3.07h21.11c1.11,0,2.08-.73,2.4-1.79L134.95,6.54c.46-1.53-.69-3.07-2.29-3.07h0Z"/>
  </g>
</svg>